<?xml version="1.0" encoding="UTF-8"?>
<svg id="Ebene_1" data-name="Ebene 1" xmlns="http://www.w3.org/2000/svg" xmlns:xlink="http://www.w3.org/1999/xlink" viewBox="0 0 194.12 196.21">
  <defs>
    <style>
      .cls-1 {
        fill: #fff;
      }

      .cls-2 {
        fill: #010101;
        opacity: .12;
      }

      .cls-3 {
        clip-path: url(#clippath);
      }

      .cls-4 {
        fill: #319737;
      }
    </style>
    <clipPath id="clippath">
      <circle class="cls-1" cx="96.27" cy="96.27" r="96.27"/>
    </clipPath>
  </defs>
  <g id="art-bot">
    <circle class="cls-1" cx="96.27" cy="96.27" r="96.27"/>
    <g class="cls-3">
      <circle class="cls-4" cx="96.27" cy="96.27" r="96.27"/>
      <g>
        <path class="cls-2" d="M173.19,163.83c-27.97,39.16-69.86,31.83-69.86,31.83l-42.98-42.98-.59-1.74-9.59-9.59,1.64-1.93,10.26,4.82-.11-4.38-13.99-13.99,6.54-7.35,5.49,5.55,1.79,1.15,3.57-1.09-21.26-21.26,2.22-11.57,8.82-6.67,5.08,4.89,7.85-2.27-13.37-13.37,6.49-7.38,11.37,11.44,1.68,1.01h5.65l-20.77-20.77,6.19-4.99,1.32-7.16,10.98,8.31s.02-2.64-.08-2.54c-.1.1-7.21-7.21-7.21-7.21l7.34-6.57,8.07,7.22,4.52-5.75-5.45-5.45s.46-.69.64-.69l7.47-1.31.86-.99,9.67,9.67,19.22-2.97,71.45,71.45s-.94,26.64-20.93,54.63Z"/>
        <g>
          <path class="cls-1" d="M54.89,86.43c.56-.43.68-1.23.25-1.79-.43-.57-1.23-.68-1.79-.25l-7.76,5.87-2.18,11.24c-.13.69.32,1.37,1.01,1.5.08.02.16.02.25.02.6,0,1.14-.43,1.26-1.04l1.99-10.27,6.98-5.28Z"/>
          <path class="cls-1" d="M58.77,143.79l-6.96-4.36c-.6-.37-1.39-.2-1.76.41-.38.6-.19,1.39.41,1.76l6.3,3.95,2.87,6.39c.21.47.68.76,1.17.76.18,0,.35-.04.52-.11.65-.29.93-1.05.64-1.69l-3.19-7.1Z"/>
          <path class="cls-1" d="M59.86,58.43c.29,0,.58-.1.82-.3l5.85-4.89.71-5.96c.08-.7-.42-1.34-1.12-1.42-.72-.09-1.34.42-1.42,1.12l-.59,4.95-5.07,4.23c-.54.45-.62,1.26-.16,1.8.25.3.62.46.98.46Z"/>
          <path class="cls-1" d="M93.78,31.06l-8.24.78c-.7.07-1.22.69-1.15,1.4.07.7.71,1.22,1.4,1.15l6.98-.66,3.5,3.75c.25.27.59.41.94.41.31,0,.63-.11.87-.34.52-.48.55-1.29.06-1.81l-4.36-4.68Z"/>
          <path class="cls-1" d="M94.93,148.74l-1.83,4.77-9.36,3.87c-.65.27-.96,1.02-.69,1.67.2.49.68.79,1.18.79.16,0,.33-.03.49-.1l10.38-4.29,2.22-5.8c.21-.54.02-1.16-.45-1.5-.68-.49-1.64-.2-1.94.58Z"/>
          <path class="cls-1" d="M57.76,74.97c.69,0,1.36-.15,1.96-.41l2.04-1.65c.58-.81.93-1.8.93-2.87,0-2.72-2.21-4.92-4.93-4.92s-4.92,2.21-4.92,4.92,2.21,4.93,4.92,4.93Z"/>
          <polygon class="cls-1" points="63.53 74.4 61.78 76.27 66.53 80.21 71.6 80.46 73.26 87.32 76.19 89.53 77.72 87.47 75.53 85.83 74.26 80.6 79.57 80.86 83.33 78.77 82.18 76.63 79.01 78.27 67.5 77.69 63.53 74.4"/>
          <path class="cls-1" d="M79.32,88.69l-1.54,2.05c-.23.57-.36,1.18-.36,1.83,0,2.72,2.21,4.92,4.92,4.92s4.93-2.21,4.93-4.92-2.21-4.93-4.93-4.93c-1.14,0-2.19.4-3.03,1.05Z"/>
          <path class="cls-1" d="M88.93,79.51c2.72,0,4.92-2.21,4.92-4.93s-2.21-4.92-4.92-4.92-4.93,2.21-4.93,4.92c0,.36.04.71.11,1.05l1.18,2.27c.9.98,2.19,1.61,3.63,1.61Z"/>
          <path class="cls-1" d="M66.39,61.69c.65,2.11,2.61,3.47,4.71,3.47.48,0,.97-.07,1.45-.22.07-.02.13-.05.19-.07h.02s2.09-1.46,2.09-1.46c1.04-1.24,1.46-2.97.94-4.63h0c-.8-2.59-3.56-4.05-6.16-3.25-2.59.8-4.05,3.57-3.25,6.16Z"/>
          <path class="cls-1" d="M80.64,68.97c.65,0,1.21-.5,1.27-1.16.07-.7-.45-1.33-1.16-1.39l-4.11-.38-.81-1.17-2.1,1.46,1.48,2.15,5.31.49s.08,0,.12,0Z"/>
          <path class="cls-1" d="M127.19,124.98c2.04.59,6.01.16,12.03-1.31.15-.1.33-.17.52-.2.11-.02.22-.01.33,0,1.5-.38,3.12-.81,4.87-1.31,8.49-2.42,7.83-8.04,7.51-10.74-.04-.33-.09-.77-.15-1.31-.41-3.74-1.51-13.68-3.13-17.41-.98-2.26-4.59-3.65-7.78-4.88-2.24-.87-4.18-1.61-5.37-2.67-.53-.47-.58-1.28-.11-1.81.47-.53,1.28-.58,1.81-.11.84.75,2.67,1.45,4.6,2.2.22.09.45.17.68.26.66-1.96,1.7-6.29.18-11.15-1.18-3.76-2.85-5.7-4.06-6.67-.65,5.49-2.94,9.33-7,11.72l-.19.11c-2.22,1.31-5.28,3.11-8.66,3.11-.8,0-1.62-.12-2.45-.35-2.48,8.8-11.47,9.27-11.57,9.27-.02,0-.03,0-.05,0-.68,0-1.25-.54-1.28-1.23-.03-.71.52-1.3,1.23-1.33.32-.01,7.36-.45,9.25-7.63-1.31-.47-2.02-.37-2.88-.23-1.1.18-2.35.37-4.52-.47-4.4-1.71-6.7-7.33-6.79-7.57-.26-.66.06-1.4.71-1.67.65-.26,1.4.06,1.66.71.03.07,1.99,4.83,5.34,6.13,1.53.59,2.26.48,3.19.33,1.23-.2,2.62-.41,5.25.8,0,0,.01,0,.02,0,.02,0,.04.01.06.02,3.67,1.72,7.28-.41,10.18-2.13l.19-.11c3.42-2.02,5.25-5.19,5.78-10,.54-4.9-.1-10.34-3.15-12.5.08,1.68-.1,3.49-.77,5.15-.92,2.26-2.62,3.93-4.93,4.84-.66.25-1.4-.07-1.66-.73-.26-.66.07-1.4.73-1.66,1.66-.65,2.84-1.8,3.49-3.41,1.17-2.89.44-6.52-.29-8.13-.42-.93-.88-1.53-1.37-2.18-.98-1.3-1.99-2.64-2.62-6.15-.37-2.03-1.58-3.8-3.33-4.87-1.52-.92-3.22-1.19-4.66-.74-2.9.9-4.16.76-6.65.46-1.04-.12-2.33-.27-4.11-.39-1.62-.11-2.96.34-4.07,1.38-2.19,2.05-3.4,6.35-3.4,12.11v12.33c.78-.17,1.76-.28,2.89-.18-1.35-5.17,1.54-9.22,1.68-9.41.42-.57,1.22-.7,1.79-.28.57.42.69,1.22.28,1.79-.12.17-2.82,4.03-.78,8.64.04.02.08.03.12.05,4.19,1.76,9.43,2.35,11.2,1.28,1.25-.75,1.71-4.86,1.64-7.39-.02-.71.53-1.3,1.24-1.32.01,0,.03,0,.04,0,.69,0,1.26.55,1.28,1.24.04,1.3.1,7.87-2.87,9.67-1.08.65-2.54.91-4.15.91-3.23,0-7.02-1.04-9.36-2.02-2.26-.95-4.09-.62-5.01-.33v40.62c1.51-1.93,3.74-3.8,6.78-3.97,2.5-.13,4.81.49,7.03,1.1,3.02.82,5.87,1.6,9.34.68,3.11-.83,5.75-2.94,7.07-5.66.78-1.62.78-2.84.52-3.45-.28-.65.01-1.4.66-1.69.65-.28,1.4.02,1.69.66.64,1.48.44,3.52-.56,5.59-.78,1.61-1.93,3.04-3.33,4.22.05.82.45,2.54,2.89,3.6,2.72,1.17,4.07.57,4.87.21.37-.16.72-.32,1.14-.32.71,0,1.28.57,1.28,1.28,0,.66-.5,1.2-1.14,1.27-.07.03-.15.07-.24.11-.6.27-1.58.7-3.02.7-1.04,0-2.33-.23-3.9-.9-2.51-1.08-3.69-2.84-4.17-4.39-.97.53-2,.96-3.08,1.25-4.13,1.1-7.6.15-10.67-.68-2.12-.58-4.14-1.13-6.22-1.01-4.17.23-6.49,5.41-6.92,6.45v30.82c2.06-1.48,5.26-3.28,8.26-2.86,1.62.23,3.15,1.12,4.78,2.06,3.17,1.84,6.16,3.59,10.07.98.59-.39,1.38-.23,1.78.36.39.59.23,1.38-.36,1.78-1.9,1.26-3.68,1.74-5.34,1.74-2.91,0-5.41-1.46-7.44-2.64-1.4-.81-2.72-1.58-3.84-1.74-2.73-.38-6.28,2.16-7.88,3.55.29,5,4.59,12.35,15.53,12.35,12.81,0,20.39-3.95,22.56-11.72-3.29-.83-5.9-2.95-6.05-3.08-.55-.45-.62-1.26-.17-1.8.45-.55,1.25-.62,1.8-.17.04.04,4.5,3.65,8.3,2.65,3.47-.92,6.16-6.91,7.28-12.43.47-2.32-.31-5.55-.85-7.35-.77.34-1.62.65-2.57.92-1.55.44-3,.83-4.36,1.18,0,2.86-1.21,7.17-6.03,8.83-.14.05-.28.07-.42.07-.53,0-1.03-.33-1.21-.86-.23-.67.13-1.4.79-1.63,3.4-1.17,4.15-4,4.28-5.78-3.93.91-6.96,1.36-9.24,1.36-1.18,0-2.16-.12-2.97-.35-4.85-1.39-5.73-6.46-5.51-8.95.06-.71.68-1.23,1.39-1.17.7.06,1.23.68,1.17,1.39-.02.2-.36,5.11,3.67,6.27ZM115.42,132.14c-.48.08-.95.12-1.41.12-1.66,0-3.12-.51-4.35-1.53-3.41-2.81-3.64-8.54-3.64-8.78-.02-.71.53-1.3,1.24-1.32.69-.05,1.3.53,1.32,1.23,0,.05.2,4.83,2.72,6.9.99.81,2.2,1.09,3.72.85.69-.11,1.35.37,1.46,1.07.11.7-.37,1.35-1.07,1.46Z"/>
          <path class="cls-1" d="M96.74,106.28l-8.56-5.25-9.88,3.5-9.44-4.14c-.07-.12-.15-.22-.24-.31l-.7-2.99-2.5.57.63,2.67-3.98,1.62,1,2.36,4.34-1.77,10.79,4.74,9.69-3.43,7.52,4.61c.85.52,1.95-.09,1.95-1.09,0-.45-.23-.86-.61-1.09Z"/>
          <path class="cls-1" d="M64.92,95.91s.05,0,.08,0l2.46-.71c1.7-1.03,2.73-3.04,2.28-5.24-.38-1.87-1.89-3.39-3.75-3.78-3.18-.67-5.99,1.75-5.99,4.81,0,2.72,2.21,4.92,4.93,4.92Z"/>
          <path class="cls-1" d="M55.46,100.97c-2.08.31-3.78,1.99-4.11,4.07-.48,3.07,1.88,5.72,4.86,5.72.54,0,1.07-.19,1.52-.49,3.37-2.24,3.55-3.74,3.35-5.12-.2-.79-1.01-2.36-1.01-2.36-1.05-1.33-2.75-2.11-4.62-1.83Z"/>
          <path class="cls-1" d="M54.87,125.32l1.11-2.35c.05-.28.08-.56.08-.86,0-2.72-2.21-4.92-4.93-4.92s-4.92,2.21-4.92,4.92,2.21,4.93,4.92,4.93c1.49,0,2.83-.67,3.73-1.72Z"/>
          <polygon class="cls-1" points="68.04 122.7 61.46 124.49 58.11 123.56 57.2 125.97 60.67 126.93 59.43 131.97 61.08 134.98 63.35 133.78 62.16 131.6 63.38 126.62 69.8 124.87 71.45 121.64 69.16 120.5 68.04 122.7"/>
          <path class="cls-1" d="M78.22,114.83c0-2.72-2.21-4.93-4.93-4.93s-4.92,2.21-4.92,4.93c0,1.51.69,2.87,1.76,3.77,1.31.8,2.32,1.08,2.32,1.08.27.05.55.08.84.08,2.72,0,4.93-2.21,4.93-4.93Z"/>
          <path class="cls-1" d="M65.28,135.59c-.29,0-.57.03-.85.08,0,0-1.49.52-2.32,1.09-1.07.9-1.75,2.25-1.75,3.76,0,2.72,2.21,4.92,4.92,4.92s4.93-2.21,4.93-4.92-2.21-4.93-4.93-4.93Z"/>
          <path class="cls-1" d="M90.65,123.95l.27-6.5c.03-.71-.52-1.3-1.23-1.33-.69-.03-1.3.52-1.33,1.23l-.22,5.17-2.42,1.54,1.53,2.06,3.39-2.16Z"/>
          <path class="cls-1" d="M85.27,127.37c-.2-.91-1.39-2.15-1.39-2.15-.87-.79-2.03-1.28-3.3-1.28-2.72,0-4.93,2.21-4.93,4.93s2.21,4.92,4.93,4.92,4.92-2.21,4.92-4.92c0-.52-.08-1.02-.23-1.49Z"/>
          <path class="cls-1" d="M83.46,143.61c-.48-2.33-2.62-4.07-5.13-3.92-2.52.15-4.58,2.31-4.62,4.84-.04,2.75,2.18,5,4.92,5,2.17,0,4.01-1.41,4.67-3.36l.16-2.56Z"/>
          <path class="cls-1" d="M92.7,139.86l3.15.54c.78.13,1.5-.47,1.5-1.26,0-.62-.45-1.16-1.07-1.26l-4.61-.79-5.41,6.52h-.76v2.56h1.97l5.23-6.31Z"/>
          <path class="cls-1" d="M90.61,47.65c2.8-.36,4.87-3.06,4.16-6.07-.42-1.79-1.89-3.22-3.69-3.61-3.19-.69-6.02,1.73-6.02,4.81,0,2.03,1.24,3.78,3,4.53,0,0,1.49.4,2.55.35Z"/>
          <path class="cls-1" d="M77.51,47.01l-2.4.89,2.5,6.46,11.06,2.97s0,0,0,0l.14.04h7.27c.71,0,1.28-.57,1.28-1.28s-.57-1.28-1.28-1.28h-5.76l.23-5.47-2.55-.33-.23,5.42-8.24-2.21-2.02-5.21Z"/>
          <path class="cls-1" d="M74.05,46.33c.15,0,.3,0,.44-.02l2.4-.89c1.54-1.09,2.43-3.04,1.95-5.15-.41-1.82-1.89-3.29-3.72-3.67-3.18-.68-6,1.74-6,4.81,0,2.72,2.21,4.93,4.93,4.93Z"/>
        </g>
      </g>
    </g>
  </g>
</svg>